<svg width="18" height="18" viewBox="0 0 18 18" xmlns="http://www.w3.org/2000/svg">
<path d="M9 2.5C7.71442 2.5 6.45771 2.88122 5.3888 3.59545C4.31988 4.30968 3.48676 5.32484 2.99479 6.51256C2.50282 7.70028 2.37409 9.00721 2.6249 10.2681C2.8757 11.529 3.49477 12.6872 4.40381 13.5962C5.31285 14.5052 6.47104 15.1243 7.73191 15.3751C8.99279 15.6259 10.2997 15.4972 11.4874 15.0052C12.6752 14.5132 13.6903 13.6801 14.4046 12.6112C15.1188 11.5423 15.5 10.2856 15.5 9C15.5 7.27609 14.8152 5.62279 13.5962 4.40381C12.3772 3.18482 10.7239 2.5 9 2.5ZM9 13.2055C8.80716 13.2055 8.61866 13.1483 8.45832 13.0412C8.29798 12.934 8.17301 12.7818 8.09922 12.6036C8.02542 12.4255 8.00612 12.2294 8.04374 12.0403C8.08136 11.8512 8.17422 11.6774 8.31057 11.5411C8.44693 11.4047 8.62066 11.3119 8.80979 11.2742C8.99892 11.2366 9.19496 11.2559 9.37312 11.3297C9.55128 11.4035 9.70355 11.5285 9.81068 11.6888C9.91782 11.8492 9.975 12.0377 9.975 12.2305C9.975 12.4891 9.87228 12.7371 9.68943 12.9199C9.50658 13.1028 9.25859 13.2055 9 13.2055ZM9.1885 10.2447C9.17749 10.2863 9.15303 10.3231 9.11893 10.3494C9.08484 10.3756 9.04302 10.3898 9 10.3898C8.95698 10.3898 8.91516 10.3756 8.88107 10.3494C8.84698 10.3231 8.82252 10.2863 8.8115 10.2447L7.7 6.075C7.7 5.73022 7.83697 5.39956 8.08076 5.15576C8.32456 4.91196 8.65522 4.775 9 4.775C9.34478 4.775 9.67544 4.91196 9.91924 5.15576C10.163 5.39956 10.3 5.73022 10.3 6.075L9.1885 10.2447Z"/>
</svg>
