<svg width="18" height="18" viewBox="0 0 18 18" xmlns="http://www.w3.org/2000/svg">
<path fill-rule="evenodd" clip-rule="evenodd" d="M8.05449 8.49347L3.30764 5.67008L8.4408 2.65154C8.78441 2.44949 9.21559 2.44949 9.5592 2.65154L14.7409 5.69861L14.7446 5.70082L10.0609 8.48667L9.31951 8.05519C9.12168 7.93398 8.86872 7.93691 8.67395 8.06267L8.05449 8.49347ZM8.64641 9.71699L3.01 6.3645C3.0034 6.41383 3 6.46413 3 6.5152V11.1473C3 11.5725 3.21616 11.9705 3.57796 12.2114L8.24463 15.3187C8.36958 15.4019 8.50552 15.4623 8.64641 15.4998V9.71699ZM14.9962 6.42224L9.35229 9.77919V15.5001C9.49365 15.4626 9.63004 15.4022 9.75537 15.3187L14.422 12.2114C14.7838 11.9705 15 11.5725 15 11.1473V6.5152C15 6.48391 14.9987 6.4529 14.9962 6.42224Z"/>
<path d="M5.70686 11.0709C5.70686 10.9717 5.66711 10.8789 5.60077 10.8233L5.11402 10.5158C5.06592 10.4755 5.00098 10.5182 5.00098 10.5901V13.1643L5.70686 13.6292V11.0709Z" fill="white"/>
</svg>
