<svg width="18" height="18" viewBox="0 0 18 18" xmlns="http://www.w3.org/2000/svg">
<path d="M9.16663 2.66663C12.7564 2.66663 15.6666 5.57684 15.6666 9.16663C15.6666 12.7564 12.7564 15.6666 9.16663 15.6666C5.57684 15.6666 2.66663 12.7564 2.66663 9.16663C2.66663 5.57684 5.57684 2.66663 9.16663 2.66663ZM12.4358 7.52148C12.3443 7.43021 12.2202 7.37905 12.0909 7.37923C11.9617 7.37941 11.8378 7.43093 11.7465 7.52245L9.66534 9.60944L8.41929 8.25191C8.37431 8.2029 8.31977 8.1636 8.25903 8.13645C8.1983 8.10931 8.13265 8.09488 8.06612 8.09405C7.9996 8.09323 7.93361 8.10604 7.87222 8.13167C7.81083 8.15731 7.75534 8.19525 7.70916 8.24314L5.89079 10.1281C5.80102 10.2212 5.75188 10.3461 5.7542 10.4754C5.75652 10.6046 5.81009 10.7277 5.90314 10.8175C5.99619 10.9072 6.12109 10.9564 6.25036 10.9541C6.37963 10.9517 6.50269 10.8982 6.59246 10.8051L8.05123 9.29289L9.29159 10.6442C9.3361 10.6928 9.38998 10.7318 9.44998 10.7589C9.50998 10.786 9.57485 10.8007 9.64068 10.8021C9.70651 10.8034 9.77194 10.7914 9.83301 10.7668C9.89408 10.7422 9.94954 10.7055 9.99603 10.6589L12.4368 8.2108C12.528 8.11925 12.5792 7.9952 12.579 7.86594C12.5788 7.73667 12.5273 7.61277 12.4358 7.52148Z"/>
</svg>
