<svg width="18" height="18" viewBox="0 0 18 18" xmlns="http://www.w3.org/2000/svg">
<path d="M12.5962 3.67294H4.4038C3.63123 3.67294 3 4.30417 3 5.07675V13.972C3 14.7446 3.63123 15.3758 4.4038 15.3758H12.5962C13.3688 15.3758 14 14.7446 14 13.972V5.07675C14 4.30417 13.3688 3.67294 12.5962 3.67294ZM5.3642 6.44957H9.16898C9.44587 6.44957 9.67048 6.67418 9.67048 6.95106C9.67048 7.22795 9.44587 7.45256 9.16898 7.45256H5.3642C5.08731 7.45256 4.8627 7.22795 4.8627 6.95106C4.8627 6.67418 5.08731 6.44957 5.3642 6.44957ZM7.72839 12.5992H5.36613C5.08924 12.5992 4.86464 12.3746 4.86464 12.0977C4.86464 11.8208 5.08924 11.5962 5.36613 11.5962H7.72839C8.00528 11.5962 8.22989 11.8208 8.22989 12.0977C8.22989 12.3746 8.00528 12.5992 7.72839 12.5992ZM11.3337 10.0259H5.3642C5.08731 10.0259 4.8627 9.80127 4.8627 9.52438C4.8627 9.24749 5.08731 9.02288 5.3642 9.02288H11.3337C11.6106 9.02288 11.8352 9.24749 11.8352 9.52438C11.8352 9.80127 11.6106 10.0259 11.3337 10.0259ZM5.3642 3.00299H11.3337C11.6106 3.00299 11.8352 2.77838 11.8352 2.5015C11.8352 2.22461 11.6106 2 11.3337 2H5.3642C5.08731 2 4.8627 2.22461 4.8627 2.5015C4.8627 2.77838 5.08731 3.00299 5.3642 3.00299Z" />
</svg>
