<svg width="18" height="18" viewBox="0 0 18 18" fill="none" xmlns="http://www.w3.org/2000/svg">
<path d="M8.175 12.4694H14.2847C14.675 12.4694 15 12.7944 15 13.25V14.4194C15 14.8097 14.675 15.2 14.2847 15.2H8.175C7.78471 15.2 7.45971 14.875 7.45971 14.4194L3.17087 14.4299C2.91116 14.4299 2.71529 14.2354 2.71529 13.9743V6.23058C2.325 6.23058 2 5.84029 2 5.45V4.28058C2 3.825 2.325 3.5 2.71529 3.5H3.95C4.34029 3.5 4.66529 3.825 4.66529 4.28058V5.45C4.66529 5.84029 4.34029 6.23058 3.95 6.23058V8.83058H7.39587C7.39587 8.44029 7.72087 8.05 8.11116 8.05H14.2209C14.6112 8.05 14.9362 8.375 14.9362 8.83058V10C14.9362 10.3903 14.6112 10.7806 14.2209 10.7806H8.10971C7.71942 10.7806 7.39442 10.4556 7.39442 10H3.95V13.25H7.39587C7.39442 12.8597 7.71942 12.4694 8.175 12.4694ZM14.2847 6.23058H6.29029C5.83471 6.23058 5.50971 5.84029 5.50971 5.45V4.28058C5.50971 3.825 5.83471 3.5 6.29029 3.5H14.2847C14.675 3.5 15 3.825 15 4.28058V5.45C15 5.84029 14.675 6.23058 14.2847 6.23058Z" fill="currentColor"/>
</svg>
