<svg width="18" height="18" viewBox="0 0 18 18" xmlns="http://www.w3.org/2000/svg">
<path d="M12.7857 9.74775H9.04874C8.61032 9.74775 8.25492 9.39235 8.25492 8.95394V4.45022C8.19878 4.44874 8.14412 4.44727 8.08799 4.44727C7.88708 4.44727 7.68912 4.45761 7.49264 4.47977C4.75524 4.7767 2.625 7.09455 2.625 9.91025C2.625 12.9269 5.07138 15.3732 8.08799 15.3732C10.9022 15.3732 13.2201 13.2445 13.5185 10.51C13.5406 10.3136 13.551 10.1126 13.551 9.91025C13.551 9.85559 13.5495 9.80093 13.548 9.74775H12.7857Z"/>
<path opacity="0.5" d="M15.3709 8.19725C15.2823 5.16499 12.839 2.72117 9.802 2.62957C9.74294 2.62802 9.68543 2.62646 9.62637 2.62646C9.41499 2.62646 9.20672 2.63733 9 2.66062V8.20613C9 8.64454 9.3554 8.99995 9.79382 8.99995H15.3383C15.3616 8.79345 15.3725 8.5823 15.3725 8.36959C15.374 8.31214 15.374 8.25469 15.3709 8.19725Z"/>
</svg>
