<svg width="18" height="18" viewBox="0 0 18 18" xmlns="http://www.w3.org/2000/svg">
<path fill-rule="evenodd" clip-rule="evenodd" d="M3 5C3 3.89539 3.89539 3 5 3H13C14.1046 3 15 3.89539 15 5V13C15 14.1046 14.1046 15 13 15H5C3.89539 15 3 14.1046 3 13V5ZM6.32532 10.2289C6.09521 10.2289 5.87451 10.3203 5.71191 10.483C5.62659 10.5684 5.56079 10.6696 5.51758 10.7798C5.47839 10.8798 5.45776 10.9871 5.45776 11.0964V11.6747C5.45581 11.7344 5.45996 11.7939 5.47021 11.8524C5.47986 11.908 5.495 11.9626 5.51538 12.0155C5.55725 12.1241 5.62048 12.2233 5.70142 12.3069C5.78235 12.3905 5.87927 12.457 5.98645 12.5024C6.09363 12.5477 6.20886 12.5712 6.32532 12.571C6.43591 12.5729 6.54468 12.5548 6.64709 12.5188C6.76965 12.4757 6.88293 12.4069 6.97876 12.3154C7.15466 12.1477 7.25745 11.9176 7.26501 11.6747V11.0964C7.24841 10.8593 7.14197 10.6375 6.96729 10.4762C6.88782 10.4028 6.797 10.3445 6.69922 10.303C6.58203 10.2532 6.45483 10.2275 6.32532 10.2289ZM8.68933 7.90112C8.58118 7.94727 8.48193 8.01416 8.39771 8.09912C8.38037 8.11658 8.36377 8.13477 8.34802 8.15344C8.29993 8.21045 8.25916 8.27271 8.22656 8.33887C8.17078 8.45178 8.13831 8.57581 8.13245 8.70361V11.6747C8.13757 11.9059 8.22974 12.1267 8.39062 12.2928C8.55139 12.459 8.76904 12.5583 8.99988 12.571C9.24292 12.575 9.47766 12.4832 9.65344 12.3154C9.74182 12.2311 9.81177 12.1311 9.86047 12.0216C9.90857 11.9132 9.93591 11.7955 9.9397 11.6747V8.70361C9.93359 8.50671 9.86536 8.31799 9.7467 8.1637C9.71863 8.1272 9.68762 8.09265 9.65393 8.0603C9.47827 7.89148 9.24353 7.82678 8.99988 7.82886C8.89197 7.83472 8.78699 7.8595 8.68933 7.90112ZM11.7468 5.42896C11.5039 5.42505 11.2692 5.51685 11.0934 5.68457C10.959 5.81274 10.8673 5.97742 10.8281 6.15637C10.816 6.21155 10.809 6.26807 10.8071 6.32532V11.6747C10.8147 11.9176 10.9175 12.1477 11.0934 12.3154C11.2692 12.4832 11.5039 12.575 11.7468 12.571C11.8633 12.5712 11.9785 12.5477 12.0857 12.5024C12.1206 12.4877 12.1544 12.4706 12.187 12.4514C12.2544 12.4119 12.3162 12.3633 12.3707 12.3069C12.4517 12.2233 12.5149 12.1241 12.5568 12.0155C12.5986 11.907 12.6183 11.791 12.6144 11.6747V6.30359C12.6193 6.18665 12.6003 6.06995 12.559 5.96057C12.5176 5.85107 12.4545 5.7511 12.3734 5.66675C12.3558 5.64844 12.3376 5.63098 12.3186 5.61438C12.2979 5.59619 12.2762 5.5791 12.2538 5.56299C12.202 5.52588 12.1462 5.49438 12.0874 5.46936C12.0334 5.44641 11.9775 5.43628 11.9204 5.43188C11.8634 5.42761 11.8053 5.42896 11.7468 5.42896Z"/>
</svg>
