<svg width="18" height="18" viewBox="0 0 18 18" xmlns="http://www.w3.org/2000/svg">
<g clip-path="url(#clip0_583_24098)">
<path d="M9 16C7.61553 16 6.26215 15.5895 5.11101 14.8203C3.95987 14.0511 3.06266 12.9579 2.53285 11.6788C2.00303 10.3997 1.86441 8.99224 2.13451 7.63437C2.4046 6.2765 3.07129 5.02922 4.05026 4.05026C5.02922 3.07129 6.2765 2.4046 7.63437 2.13451C8.99224 1.86441 10.3997 2.00303 11.6788 2.53285C12.9579 3.06266 14.0511 3.95987 14.8203 5.11101C15.5895 6.26215 16 7.61553 16 9C16 10.8565 15.2625 12.637 13.9497 13.9497C12.637 15.2625 10.8565 16 9 16ZM9 2.875C7.78859 2.875 6.60439 3.23423 5.59713 3.90725C4.58988 4.58027 3.80483 5.53687 3.34124 6.65607C2.87765 7.77526 2.75636 9.0068 2.99269 10.1949C3.22903 11.3831 3.81238 12.4744 4.66897 13.331C5.52557 14.1876 6.61694 14.771 7.80507 15.0073C8.99321 15.2436 10.2247 15.1223 11.3439 14.6588C12.4631 14.1952 13.4197 13.4101 14.0928 12.4029C14.7658 11.3956 15.125 10.2114 15.125 9C15.125 7.37555 14.4797 5.81763 13.331 4.66897C12.1824 3.52031 10.6245 2.875 9 2.875ZM9 13.375C8.13471 13.375 7.28885 13.1184 6.56938 12.6377C5.84992 12.1569 5.28916 11.4737 4.95803 10.6742C4.6269 9.87481 4.54026 8.99515 4.70907 8.14648C4.87788 7.29781 5.29456 6.51826 5.90641 5.90641C6.51826 5.29456 7.29781 4.87788 8.14648 4.70907C8.99515 4.54026 9.87481 4.6269 10.6742 4.95803C11.4737 5.28916 12.1569 5.84992 12.6377 6.56938C13.1184 7.28885 13.375 8.13471 13.375 9C13.375 10.1603 12.9141 11.2731 12.0936 12.0936C11.2731 12.9141 10.1603 13.375 9 13.375ZM10.3125 6.375C10.0529 6.375 9.79916 6.45198 9.58332 6.5962C9.36748 6.74042 9.19925 6.9454 9.09991 7.18523C9.00057 7.42506 8.97458 7.68896 9.02522 7.94356C9.07586 8.19816 9.20087 8.43202 9.38442 8.61558C9.56798 8.79914 9.80184 8.92414 10.0564 8.97478C10.311 9.02543 10.5749 8.99943 10.8148 8.90009C11.0546 8.80075 11.2596 8.63253 11.4038 8.41669C11.548 8.20085 11.625 7.94709 11.625 7.6875C11.625 7.33941 11.4867 7.00557 11.2406 6.75942C10.9944 6.51328 10.6606 6.375 10.3125 6.375Z"/>
</g>
<defs>
<clipPath id="clip0_583_24098">
<rect width="14" height="14" transform="translate(2 2)"/>
</clipPath>
</defs>
</svg>
